# Blender v2.93.6 OBJ File: ''
# www.blender.org
o Cube
v 0.481669 -1.627402 -0.345771
v 1.001115 -0.017889 -1.413311
v -1.406643 -0.972052 -0.276529
v -0.887197 0.637461 -1.344070
v 0.887197 -0.637461 1.344070
v 1.406643 0.972052 0.276529
v -1.001115 0.017889 1.413311
v -0.481669 1.627402 0.345771
vt 0.875000 0.500000
vt 0.625000 0.750000
vt 0.625000 0.500000
vt 0.375000 1.000000
vt 0.375000 0.750000
vt 0.625000 0.000000
vt 0.375000 0.250000
vt 0.375000 0.000000
vt 0.375000 0.500000
vt 0.125000 0.750000
vt 0.125000 0.500000
vt 0.625000 0.250000
vt 0.875000 0.750000
vt 0.625000 1.000000
vn -0.2597 -0.8048 0.5338
vn -0.9442 0.3277 0.0346
vn 0.2028 0.4950 0.8449
vn 0.2597 0.8048 -0.5338
vn -0.2028 -0.4950 -0.8449
vn 0.9442 -0.3277 -0.0346
s off
f 5/1/1 3/2/1 1/3/1
f 3/2/2 8/4/2 4/5/2
f 7/6/3 6/7/3 8/8/3
f 2/9/4 8/10/4 6/11/4
f 1/3/5 4/5/5 2/9/5
f 5/12/6 2/9/6 6/7/6
f 5/1/1 7/13/1 3/2/1
f 3/2/2 7/14/2 8/4/2
f 7/6/3 5/12/3 6/7/3
f 2/9/4 4/5/4 8/10/4
f 1/3/5 3/2/5 4/5/5
f 5/12/6 1/3/6 2/9/6
